<?xml version="1.0" encoding="UTF-8"?>
<svg xmlns="http://www.w3.org/2000/svg" xmlns:xlink="http://www.w3.org/1999/xlink" width="161px" height="28px" viewBox="0 0 161 28" version="1.1">
<g id="surface1">
<path style=" stroke:none;fill-rule:nonzero;fill:rgb(6.27451%,6.27451%,6.27451%);fill-opacity:1;" d="M 11.445312 6.550781 C 14.125 6.550781 16.097656 7.09375 17.359375 8.183594 C 18.640625 9.269531 19.28125 10.691406 19.28125 12.453125 C 19.28125 13.042969 19.203125 13.707031 19.042969 14.4375 C 18.667969 16.058594 17.96875 17.480469 16.945312 18.707031 C 15.917969 19.914062 14.65625 20.851562 13.160156 21.523438 C 11.679688 22.175781 10.074219 22.503906 8.339844 22.503906 C 5.597656 22.503906 3.566406 21.957031 2.246094 20.871094 C 0.945312 19.765625 0.296875 18.300781 0.296875 16.484375 C 0.296875 15.871094 0.375 15.1875 0.53125 14.4375 C 0.90625 12.894531 1.617188 11.53125 2.660156 10.347656 C 3.726562 9.140625 5.015625 8.210938 6.535156 7.558594 C 8.074219 6.886719 9.710938 6.550781 11.445312 6.550781 Z M 11.355469 9.191406 C 10.941406 9.191406 10.496094 9.566406 10.023438 10.316406 C 9.570312 11.046875 9.027344 12.441406 8.398438 14.496094 C 7.765625 16.554688 7.453125 17.996094 7.453125 18.824219 C 7.453125 19.261719 7.519531 19.558594 7.660156 19.714844 C 7.796875 19.855469 7.984375 19.921875 8.222656 19.921875 C 8.636719 19.960938 9.058594 19.605469 9.492188 18.855469 C 9.945312 18.105469 10.507812 16.640625 11.179688 14.46875 C 11.789062 12.550781 12.09375 11.15625 12.09375 10.289062 C 12.09375 9.871094 12.027344 9.585938 11.886719 9.429688 C 11.769531 9.269531 11.59375 9.191406 11.355469 9.191406 Z M 11.355469 9.191406 "/>
<path style=" stroke:none;fill-rule:nonzero;fill:rgb(6.27451%,6.27451%,6.27451%);fill-opacity:1;" d="M 36.957031 18.144531 C 36.917969 18.222656 36.898438 18.339844 36.898438 18.5 C 36.898438 18.636719 36.925781 18.746094 36.984375 18.824219 C 37.0625 18.90625 37.164062 18.945312 37.28125 18.945312 C 37.519531 18.945312 37.714844 18.84375 37.871094 18.648438 C 38.050781 18.429688 38.167969 18.320312 38.226562 18.320312 C 38.324219 18.320312 38.40625 18.390625 38.464844 18.53125 C 38.523438 18.648438 38.554688 18.796875 38.554688 18.972656 C 38.574219 19.546875 38.386719 20.109375 37.992188 20.664062 C 37.597656 21.199219 37.015625 21.640625 36.246094 22 C 35.496094 22.335938 34.589844 22.503906 33.527344 22.503906 C 32.222656 22.503906 31.191406 22.207031 30.421875 21.613281 C 29.652344 21 29.257812 20.191406 29.238281 19.183594 C 29.238281 18.449219 29.414062 17.628906 29.769531 16.722656 L 31.398438 12.453125 C 31.496094 12.195312 31.542969 11.988281 31.542969 11.828125 C 31.542969 11.570312 31.457031 11.375 31.277344 11.234375 C 31.121094 11.078125 30.921875 11 30.6875 11 C 30.3125 11 29.929688 11.175781 29.535156 11.53125 C 29.160156 11.867188 28.851562 12.421875 28.617188 13.191406 L 28.617188 13.132812 L 26.753906 19.152344 C 26.695312 19.390625 26.664062 19.597656 26.664062 19.773438 C 26.664062 20.03125 26.714844 20.238281 26.8125 20.398438 C 26.910156 20.535156 27.050781 20.675781 27.226562 20.8125 C 27.363281 20.949219 27.464844 21.070312 27.523438 21.167969 C 27.582031 21.246094 27.589844 21.355469 27.550781 21.492188 C 27.453125 21.75 27.257812 21.9375 26.960938 22.058594 C 26.664062 22.175781 26.210938 22.234375 25.601562 22.234375 L 18.859375 22.234375 C 18.347656 22.234375 17.972656 22.15625 17.734375 22 C 17.496094 21.820312 17.417969 21.59375 17.496094 21.316406 C 17.578125 21.078125 17.785156 20.871094 18.117188 20.695312 C 18.414062 20.535156 18.660156 20.347656 18.859375 20.128906 C 19.054688 19.914062 19.222656 19.566406 19.359375 19.09375 L 23.855469 4.296875 C 23.914062 4.121094 23.945312 3.972656 23.945312 3.855469 C 23.945312 3.636719 23.886719 3.457031 23.765625 3.320312 C 23.667969 3.183594 23.53125 3.042969 23.351562 2.90625 C 23.15625 2.746094 23.007812 2.609375 22.910156 2.492188 C 22.832031 2.371094 22.820312 2.214844 22.878906 2.015625 C 23 1.5625 23.621094 1.167969 24.742188 0.832031 C 25.867188 0.492188 27.039062 0.324219 28.261719 0.324219 C 29.40625 0.324219 30.242188 0.542969 30.777344 0.976562 C 31.328125 1.414062 31.605469 2.007812 31.605469 2.757812 C 31.605469 3.191406 31.535156 3.617188 31.398438 4.03125 L 29.800781 9.25 C 30.570312 8.242188 31.375 7.539062 32.222656 7.144531 C 33.09375 6.75 34.027344 6.550781 35.035156 6.550781 C 36.238281 6.550781 37.203125 6.917969 37.933594 7.648438 C 38.679688 8.378906 39.054688 9.328125 39.054688 10.496094 C 39.054688 11.109375 38.957031 11.710938 38.761719 12.304688 Z M 36.957031 18.144531 "/>
<path style=" stroke:none;fill-rule:nonzero;fill:rgb(6.27451%,6.27451%,6.27451%);fill-opacity:1;" d="M 67.945312 18.144531 C 67.90625 18.222656 67.886719 18.339844 67.886719 18.5 C 67.886719 18.636719 67.917969 18.746094 67.976562 18.824219 C 68.054688 18.90625 68.152344 18.945312 68.269531 18.945312 C 68.507812 18.945312 68.703125 18.84375 68.863281 18.648438 C 69.039062 18.429688 69.15625 18.320312 69.21875 18.320312 C 69.316406 18.320312 69.394531 18.390625 69.453125 18.53125 C 69.511719 18.648438 69.542969 18.796875 69.542969 18.972656 C 69.5625 19.546875 69.375 20.109375 68.980469 20.664062 C 68.585938 21.199219 68.003906 21.640625 67.234375 22 C 66.488281 22.335938 65.578125 22.503906 64.515625 22.503906 C 63.214844 22.503906 62.179688 22.207031 61.410156 21.613281 C 60.640625 21 60.246094 20.191406 60.226562 19.183594 C 60.226562 18.449219 60.40625 17.628906 60.761719 16.722656 L 62.386719 12.453125 C 62.484375 12.195312 62.535156 11.988281 62.535156 11.828125 C 62.535156 11.570312 62.445312 11.375 62.269531 11.234375 C 62.109375 11.078125 61.914062 11 61.675781 11 C 61.339844 11 60.996094 11.148438 60.640625 11.445312 C 60.285156 11.742188 59.972656 12.203125 59.695312 12.835938 L 58.070312 18.144531 C 58.03125 18.222656 58.007812 18.339844 58.007812 18.5 C 58.007812 18.636719 58.039062 18.746094 58.097656 18.824219 C 58.175781 18.90625 58.277344 18.945312 58.394531 18.945312 C 58.628906 18.945312 58.828125 18.84375 58.984375 18.648438 C 59.164062 18.429688 59.28125 18.320312 59.339844 18.320312 C 59.4375 18.320312 59.519531 18.390625 59.578125 18.53125 C 59.636719 18.648438 59.664062 18.796875 59.664062 18.972656 C 59.683594 19.546875 59.5 20.109375 59.105469 20.664062 C 58.710938 21.199219 58.128906 21.640625 57.359375 22 C 56.609375 22.335938 55.703125 22.503906 54.636719 22.503906 C 53.335938 22.503906 52.300781 22.207031 51.535156 21.613281 C 50.765625 21 50.371094 20.191406 50.351562 19.183594 C 50.351562 18.449219 50.527344 17.628906 50.882812 16.722656 L 52.507812 12.453125 C 52.609375 12.195312 52.65625 11.988281 52.65625 11.828125 C 52.65625 11.570312 52.570312 11.375 52.390625 11.234375 C 52.234375 11.078125 52.035156 11 51.800781 11 C 51.464844 11 51.121094 11.148438 50.765625 11.445312 C 50.410156 11.71875 50.113281 12.175781 49.878906 12.808594 L 47.925781 19.152344 C 47.847656 19.371094 47.808594 19.578125 47.808594 19.773438 C 47.808594 20.011719 47.855469 20.210938 47.957031 20.367188 C 48.054688 20.507812 48.191406 20.652344 48.371094 20.8125 C 48.507812 20.929688 48.605469 21.039062 48.664062 21.136719 C 48.722656 21.238281 48.734375 21.355469 48.695312 21.492188 C 48.617188 21.75 48.429688 21.9375 48.132812 22.058594 C 47.835938 22.175781 47.375 22.234375 46.742188 22.234375 L 40 22.234375 C 39.488281 22.234375 39.125 22.15625 38.90625 22 C 38.671875 21.820312 38.582031 21.59375 38.640625 21.316406 C 38.71875 21.078125 38.925781 20.871094 39.261719 20.695312 C 39.558594 20.535156 39.804688 20.347656 40 20.128906 C 40.199219 19.914062 40.367188 19.566406 40.503906 19.09375 L 43.136719 10.523438 C 43.175781 10.425781 43.195312 10.289062 43.195312 10.109375 C 43.195312 9.890625 43.144531 9.722656 43.046875 9.605469 C 42.96875 9.488281 42.828125 9.339844 42.632812 9.160156 C 42.433594 9.003906 42.296875 8.863281 42.21875 8.746094 C 42.140625 8.628906 42.128906 8.46875 42.1875 8.273438 C 42.308594 7.816406 42.929688 7.421875 44.050781 7.085938 C 45.175781 6.730469 46.347656 6.550781 47.570312 6.550781 C 48.535156 6.550781 49.296875 6.820312 49.847656 7.351562 C 50.417969 7.886719 50.695312 8.617188 50.675781 9.546875 C 51.484375 8.417969 52.332031 7.640625 53.21875 7.203125 C 54.125 6.769531 55.101562 6.550781 56.148438 6.550781 C 57.289062 6.550781 58.214844 6.886719 58.925781 7.558594 C 59.65625 8.210938 60.058594 9.070312 60.140625 10.140625 C 60.988281 8.796875 61.894531 7.867188 62.859375 7.351562 C 63.824219 6.820312 64.878906 6.550781 66.023438 6.550781 C 67.226562 6.550781 68.191406 6.917969 68.921875 7.648438 C 69.671875 8.378906 70.046875 9.328125 70.046875 10.496094 C 70.046875 11.109375 69.945312 11.710938 69.75 12.304688 Z M 67.945312 18.144531 "/>
<path style=" stroke:none;fill-rule:nonzero;fill:rgb(6.27451%,6.27451%,6.27451%);fill-opacity:1;" d="M 86.195312 6.550781 C 87.0625 6.550781 87.75 6.90625 88.265625 7.621094 C 88.796875 8.3125 89.0625 9.257812 89.0625 10.464844 C 89.0625 11.511719 88.875 12.640625 88.5 13.84375 C 87.769531 16.277344 86.597656 18.570312 84.980469 20.722656 C 83.386719 22.878906 81.542969 24.605469 79.453125 25.910156 C 77.382812 27.214844 75.3125 27.867188 73.242188 27.867188 C 72.214844 27.867188 71.328125 27.691406 70.578125 27.335938 C 69.851562 26.980469 69.296875 26.503906 68.925781 25.910156 C 68.53125 25.320312 68.332031 24.6875 68.332031 24.015625 C 68.332031 23.71875 68.382812 23.390625 68.480469 23.035156 C 68.65625 22.480469 68.953125 22.058594 69.367188 21.761719 C 69.78125 21.464844 70.273438 21.316406 70.847656 21.316406 C 71.753906 21.316406 72.492188 21.621094 73.0625 22.234375 C 73.65625 22.867188 74.03125 23.726562 74.1875 24.816406 C 75.449219 24.753906 76.613281 24.210938 77.675781 23.183594 C 76.671875 23.007812 75.921875 22.671875 75.429688 22.175781 C 74.957031 21.664062 74.632812 20.871094 74.453125 19.804688 L 73.269531 12.539062 C 73.210938 12.164062 73.125 11.910156 73.003906 11.769531 C 72.90625 11.613281 72.769531 11.53125 72.589844 11.53125 C 72.453125 11.53125 72.285156 11.601562 72.089844 11.742188 C 71.910156 11.878906 71.78125 11.949219 71.703125 11.949219 C 71.546875 11.949219 71.46875 11.78125 71.46875 11.445312 C 71.46875 11.167969 71.515625 10.871094 71.613281 10.554688 C 71.96875 9.429688 72.628906 8.480469 73.597656 7.707031 C 74.5625 6.917969 75.6875 6.523438 76.96875 6.523438 C 78.230469 6.523438 79.15625 6.898438 79.746094 7.648438 C 80.359375 8.398438 80.753906 9.554688 80.929688 11.117188 L 81.816406 17.640625 C 81.875 18.132812 82.054688 18.382812 82.351562 18.382812 C 82.703125 18.382812 83.117188 18.066406 83.59375 17.433594 C 84.066406 16.78125 84.527344 15.859375 84.980469 14.675781 C 84.390625 14.140625 83.9375 13.527344 83.621094 12.835938 C 83.304688 12.144531 83.148438 11.402344 83.148438 10.613281 C 83.148438 10 83.226562 9.449219 83.386719 8.953125 C 83.621094 8.164062 83.984375 7.570312 84.480469 7.175781 C 84.992188 6.757812 85.5625 6.550781 86.195312 6.550781 Z M 86.195312 6.550781 "/>
<path style=" stroke:none;fill-rule:nonzero;fill:rgb(6.27451%,6.27451%,6.27451%);fill-opacity:1;" d="M 100.925781 0.324219 C 103.035156 0.324219 104.609375 0.652344 105.65625 1.304688 C 106.71875 1.9375 107.253906 2.71875 107.253906 3.648438 C 107.253906 4.398438 106.9375 4.980469 106.304688 5.394531 C 105.695312 5.792969 104.886719 5.988281 103.882812 5.988281 C 102.953125 5.988281 102.234375 5.761719 101.722656 5.308594 C 101.210938 4.851562 100.953125 4.289062 100.953125 3.617188 C 100.953125 3.203125 101.082031 2.765625 101.339844 2.3125 C 100.746094 2.3125 100.253906 2.460938 99.859375 2.757812 C 99.464844 3.035156 99.160156 3.519531 98.941406 4.210938 C 98.824219 4.644531 98.765625 5.050781 98.765625 5.425781 C 98.765625 5.898438 98.84375 6.273438 99 6.550781 C 99.179688 6.808594 99.425781 6.9375 99.742188 6.9375 L 101.484375 6.9375 C 102.511719 6.9375 103.023438 7.253906 103.023438 7.886719 C 103.023438 7.964844 103.003906 8.082031 102.964844 8.242188 C 102.847656 8.675781 102.601562 9.003906 102.226562 9.21875 C 101.871094 9.4375 101.328125 9.546875 100.597656 9.546875 L 99.710938 9.546875 L 96.785156 19.152344 C 96.726562 19.390625 96.695312 19.597656 96.695312 19.773438 C 96.695312 20.03125 96.746094 20.238281 96.84375 20.398438 C 96.941406 20.535156 97.078125 20.675781 97.257812 20.8125 C 97.394531 20.949219 97.492188 21.070312 97.554688 21.167969 C 97.613281 21.246094 97.621094 21.355469 97.582031 21.492188 C 97.484375 21.75 97.285156 21.9375 96.992188 22.058594 C 96.695312 22.175781 96.242188 22.234375 95.628906 22.234375 L 88.886719 22.234375 C 88.375 22.234375 88 22.15625 87.765625 22 C 87.527344 21.820312 87.449219 21.59375 87.527344 21.316406 C 87.605469 21.078125 87.8125 20.871094 88.148438 20.695312 C 88.445312 20.535156 88.691406 20.347656 88.886719 20.128906 C 89.085938 19.914062 89.253906 19.566406 89.390625 19.09375 L 91.699219 11.503906 C 91.796875 11.207031 91.84375 10.898438 91.84375 10.585938 C 91.84375 10.1875 91.757812 9.882812 91.578125 9.664062 C 91.421875 9.429688 91.175781 9.171875 90.839844 8.894531 C 90.625 8.714844 90.457031 8.566406 90.335938 8.449219 C 90.238281 8.3125 90.191406 8.152344 90.191406 7.976562 C 90.167969 7.597656 90.296875 7.332031 90.574219 7.175781 C 90.871094 7.015625 91.421875 6.9375 92.230469 6.9375 L 92.96875 6.9375 C 92.832031 6.441406 92.761719 5.949219 92.761719 5.453125 C 92.761719 4.960938 92.851562 4.445312 93.027344 3.914062 C 93.402344 2.90625 94.203125 2.054688 95.421875 1.363281 C 96.664062 0.671875 98.5 0.324219 100.925781 0.324219 Z M 100.925781 0.324219 "/>
<path style=" stroke:none;fill-rule:nonzero;fill:rgb(6.27451%,6.27451%,6.27451%);fill-opacity:1;" d="M 112.605469 6.550781 C 115.285156 6.550781 117.257812 7.09375 118.519531 8.183594 C 119.800781 9.269531 120.441406 10.691406 120.441406 12.453125 C 120.441406 13.042969 120.363281 13.707031 120.203125 14.4375 C 119.828125 16.058594 119.128906 17.480469 118.105469 18.707031 C 117.078125 19.914062 115.816406 20.851562 114.320312 21.523438 C 112.839844 22.175781 111.234375 22.503906 109.5 22.503906 C 106.757812 22.503906 104.730469 21.957031 103.40625 20.871094 C 102.105469 19.765625 101.457031 18.300781 101.457031 16.484375 C 101.457031 15.871094 101.535156 15.1875 101.691406 14.4375 C 102.066406 12.894531 102.777344 11.53125 103.820312 10.347656 C 104.886719 9.140625 106.179688 8.210938 107.695312 7.558594 C 109.234375 6.886719 110.871094 6.550781 112.605469 6.550781 Z M 112.515625 9.191406 C 112.101562 9.191406 111.660156 9.566406 111.183594 10.316406 C 110.730469 11.046875 110.191406 12.441406 109.558594 14.496094 C 108.929688 16.554688 108.613281 17.996094 108.613281 18.824219 C 108.613281 19.261719 108.679688 19.558594 108.820312 19.714844 C 108.957031 19.855469 109.144531 19.921875 109.382812 19.921875 C 109.796875 19.960938 110.21875 19.605469 110.652344 18.855469 C 111.105469 18.105469 111.667969 16.640625 112.339844 14.46875 C 112.949219 12.550781 113.253906 11.15625 113.253906 10.289062 C 113.253906 9.871094 113.1875 9.585938 113.046875 9.429688 C 112.929688 9.269531 112.753906 9.191406 112.515625 9.191406 Z M 112.515625 9.191406 "/>
<path style=" stroke:none;fill-rule:nonzero;fill:rgb(6.27451%,6.27451%,6.27451%);fill-opacity:1;" d="M 132.011719 6.550781 C 134.691406 6.550781 136.664062 7.09375 137.925781 8.183594 C 139.207031 9.269531 139.847656 10.691406 139.847656 12.453125 C 139.847656 13.042969 139.769531 13.707031 139.609375 14.4375 C 139.234375 16.058594 138.535156 17.480469 137.511719 18.707031 C 136.484375 19.914062 135.222656 20.851562 133.726562 21.523438 C 132.246094 22.175781 130.640625 22.503906 128.90625 22.503906 C 126.164062 22.503906 124.136719 21.957031 122.8125 20.871094 C 121.511719 19.765625 120.863281 18.300781 120.863281 16.484375 C 120.863281 15.871094 120.941406 15.1875 121.097656 14.4375 C 121.472656 12.894531 122.183594 11.53125 123.226562 10.347656 C 124.292969 9.140625 125.585938 8.210938 127.101562 7.558594 C 128.640625 6.886719 130.277344 6.550781 132.011719 6.550781 Z M 131.921875 9.191406 C 131.507812 9.191406 131.066406 9.566406 130.589844 10.316406 C 130.136719 11.046875 129.597656 12.441406 128.964844 14.496094 C 128.335938 16.554688 128.019531 17.996094 128.019531 18.824219 C 128.019531 19.261719 128.085938 19.558594 128.226562 19.714844 C 128.363281 19.855469 128.550781 19.921875 128.789062 19.921875 C 129.203125 19.960938 129.625 19.605469 130.058594 18.855469 C 130.511719 18.105469 131.074219 16.640625 131.746094 14.46875 C 132.355469 12.550781 132.660156 11.15625 132.660156 10.289062 C 132.660156 9.871094 132.59375 9.585938 132.453125 9.429688 C 132.335938 9.269531 132.160156 9.191406 131.921875 9.191406 Z M 131.921875 9.191406 "/>
<path style=" stroke:none;fill-rule:nonzero;fill:rgb(6.27451%,6.27451%,6.27451%);fill-opacity:1;" d="M 156.503906 17.964844 C 156.464844 18.125 156.445312 18.234375 156.445312 18.292969 C 156.445312 18.429688 156.484375 18.539062 156.5625 18.617188 C 156.640625 18.699219 156.738281 18.738281 156.859375 18.738281 C 157.09375 18.738281 157.292969 18.636719 157.449219 18.441406 C 157.628906 18.222656 157.746094 18.113281 157.804688 18.113281 C 157.902344 18.113281 157.980469 18.183594 158.042969 18.320312 C 158.101562 18.460938 158.128906 18.617188 158.128906 18.796875 C 158.148438 19.328125 157.941406 19.875 157.507812 20.425781 C 157.09375 20.980469 156.53125 21.433594 155.824219 21.789062 C 155.113281 22.144531 154.34375 22.324219 153.515625 22.324219 C 152.53125 22.324219 151.671875 22.136719 150.945312 21.761719 C 150.214844 21.386719 149.710938 20.890625 149.4375 20.277344 C 148.902344 20.96875 148.292969 21.484375 147.601562 21.820312 C 146.914062 22.15625 146.183594 22.324219 145.414062 22.324219 C 144.507812 22.324219 143.660156 22.097656 142.871094 21.640625 C 142.101562 21.1875 141.480469 20.546875 141.007812 19.714844 C 140.554688 18.867188 140.328125 17.90625 140.328125 16.839844 C 140.328125 15.039062 140.664062 13.351562 141.332031 11.769531 C 142.023438 10.167969 142.980469 8.882812 144.203125 7.914062 C 145.425781 6.925781 146.8125 6.433594 148.371094 6.433594 C 149.21875 6.433594 149.9375 6.53125 150.53125 6.730469 C 151.140625 6.925781 151.691406 7.222656 152.1875 7.621094 L 153.191406 4.296875 C 153.25 4.121094 153.28125 3.972656 153.28125 3.855469 C 153.28125 3.636719 153.222656 3.457031 153.101562 3.320312 C 153.003906 3.183594 152.867188 3.042969 152.6875 2.90625 C 152.492188 2.746094 152.34375 2.609375 152.246094 2.492188 C 152.167969 2.371094 152.15625 2.214844 152.214844 2.015625 C 152.332031 1.5625 152.953125 1.167969 154.078125 0.832031 C 155.203125 0.492188 156.375 0.324219 157.597656 0.324219 C 158.742188 0.324219 159.578125 0.542969 160.109375 0.976562 C 160.664062 1.414062 160.9375 2.007812 160.9375 2.757812 C 160.9375 3.191406 160.871094 3.617188 160.730469 4.03125 Z M 151.566406 9.636719 C 151.25 9.359375 150.90625 9.21875 150.53125 9.21875 C 149.957031 9.21875 149.398438 9.644531 148.84375 10.496094 C 148.292969 11.34375 147.847656 12.371094 147.515625 13.578125 C 147.179688 14.785156 147.019531 15.871094 147.039062 16.839844 C 147.039062 17.925781 147.394531 18.46875 148.105469 18.46875 C 148.363281 18.46875 148.578125 18.371094 148.753906 18.171875 C 148.933594 17.957031 149.101562 17.609375 149.257812 17.136719 Z M 151.566406 9.636719 "/>
</g>
</svg>
